<svg xmlns="http://www.w3.org/2000/svg" width="316" height="111" viewBox="0 0 316 111"><defs><style>.cls-1{fill:#5e8fdb;}.cls-2{fill:#abc5ef;}.cls-3{fill:#fff;}</style></defs><title>hval</title><g id="Layer_4" data-name="Layer 4"><path class="cls-1" d="M42.91,29.73s0,21.29,18.51,40.05c12.21,12.36,32.45,23.61,66.05,26.94,0,0,140.25,31.4,179.44-41.87,0,0-25.78-32.44-131-5.23C175.94,49.62,79,68.46,42.91,29.73Z"/><path class="cls-2" d="M58.34,67S198.2,121.39,311,56.34c0,0-29.24,56.66-154.57,48.27C156.43,104.61,87.66,102.92,58.34,67Z"/><polygon class="cls-1" points="303.25 51.6 311 56.34 296.59 63.95 303.25 51.6"/><ellipse class="cls-3" cx="262.69" cy="56.75" rx="5.87" ry="8.69" transform="translate(-5.47 38.87) rotate(-8.37)"/><ellipse cx="263.35" cy="58.91" rx="5.7" ry="6.17" transform="translate(-6.17 72.35) rotate(-15.46)"/><path class="cls-2" d="M225.5,33.51s.25-14.09-5.14-13.77C220.36,19.74,212.87,21.27,225.5,33.51Z"/><path class="cls-2" d="M227.69,34.07s13.84-7.58,10.54-12.65C238.23,21.42,232.59,15,227.69,34.07Z"/><path class="cls-2" d="M227.66,25.64s6.09-10.15,2-12.18C229.69,13.46,223.6,11.43,227.66,25.64Z"/><path class="cls-1" d="M3,38.94s16.76,27.11,43.17,8.44l12.09-8.44s18.41-2,20.46-34.79c0,0-28.65,10.23-34.79,20.47C43.93,24.62,21.42,26.66,3,38.94Z"/></g></svg>