<svg xmlns="http://www.w3.org/2000/svg" xmlns:xlink="http://www.w3.org/1999/xlink" viewBox="0 0 1600 2700">
  <defs>
    <style>
      .cls-1 {
        fill: url(#linear-gradient);
      }

      .cls-2 {
        fill: #62a6e8;
      }

      .cls-3 {
        fill: #291e7a;
      }

      .cls-4 {
        fill: #46afa0;
      }

      .cls-5 {
        fill: #dccaff;
      }

      .cls-6 {
        fill: #ffbdfd;
      }

      .cls-17, .cls-19, .cls-30, .cls-42, .cls-47, .cls-55, .cls-7, .cls-70, .cls-71, .cls-72, .cls-73, .cls-75, .cls-76, .cls-78, .cls-82, .cls-84 {
        fill: none;
      }

      .cls-7 {
        stroke: #ead434;
      }

      .cls-17, .cls-19, .cls-42, .cls-47, .cls-49, .cls-50, .cls-51, .cls-55, .cls-7, .cls-71, .cls-73, .cls-76, .cls-78, .cls-84 {
        stroke-miterlimit: 10;
      }

      .cls-7, .cls-72, .cls-73 {
        stroke-width: 2px;
      }

      .cls-8 {
        fill: #ead434;
      }

      .cls-9 {
        fill: #adada8;
      }

      .cls-10 {
        fill: #b8c959;
      }

      .cls-11 {
        fill: #f42530;
      }

      .cls-12 {
        fill: #dbd8d1;
      }

      .cls-13 {
        fill: #706548;
      }

      .cls-14 {
        fill: #665839;
      }

      .cls-15 {
        fill: #8ed6d6;
      }

      .cls-16 {
        fill: #6389d3;
      }

      .cls-17, .cls-47 {
        stroke: #dbd8d1;
      }

      .cls-17, .cls-28, .cls-29, .cls-30, .cls-47, .cls-49, .cls-51, .cls-60, .cls-61, .cls-70, .cls-72, .cls-75, .cls-82 {
        stroke-linecap: round;
      }

      .cls-17, .cls-19, .cls-75 {
        stroke-width: 4px;
      }

      .cls-18 {
        fill: #e298a0;
      }

      .cls-19 {
        stroke: #e298a0;
      }

      .cls-20 {
        fill: #f2e9e9;
      }

      .cls-21 {
        fill: #d6be8e;
      }

      .cls-22 {
        fill: #75bc88;
      }

      .cls-23 {
        fill: #65a573;
      }

      .cls-24 {
        fill: #a37746;
      }

      .cls-25 {
        fill: #d85d09;
      }

      .cls-26 {
        fill: #f9accb;
      }

      .cls-27 {
        fill: #f982ad;
      }

      .cls-28 {
        fill: #f4fcd9;
        stroke: #f4fcd9;
      }

      .cls-28, .cls-29, .cls-30, .cls-60, .cls-61, .cls-70, .cls-72, .cls-75, .cls-82 {
        stroke-linejoin: round;
      }

      .cls-29, .cls-30, .cls-84 {
        stroke: #000;
      }

      .cls-30, .cls-71 {
        stroke-width: 3px;
      }

      .cls-31 {
        fill: #fc9070;
      }

      .cls-32 {
        fill: #fc7342;
      }

      .cls-33 {
        fill: #ff875c;
      }

      .cls-34 {
        opacity: 0.4;
        filter: url(#AI_GaussianBlur_7);
      }

      .cls-35 {
        fill: #eaea4d;
      }

      .cls-36 {
        fill: #eaea18;
      }

      .cls-37 {
        fill: url(#linear-gradient-2);
      }

      .cls-38 {
        fill: url(#linear-gradient-3);
      }

      .cls-39 {
        fill: url(#linear-gradient-4);
      }

      .cls-40 {
        fill: url(#linear-gradient-5);
      }

      .cls-41 {
        fill: #7fbecc;
      }

      .cls-42 {
        stroke: #efebe4;
      }

      .cls-42, .cls-78 {
        stroke-width: 5px;
      }

      .cls-43 {
        fill: #efebe4;
      }

      .cls-44 {
        fill: #e2afde;
      }

      .cls-45 {
        fill: #d184c6;
      }

      .cls-46 {
        fill: #e8314c;
      }

      .cls-47, .cls-70 {
        stroke-width: 9px;
      }

      .cls-48 {
        fill: #534741;
      }

      .cls-49, .cls-50, .cls-51, .cls-52, .cls-56, .cls-74, .cls-77 {
        fill: #fff;
      }

      .cls-49, .cls-50, .cls-51, .cls-55, .cls-71, .cls-72, .cls-73, .cls-76, .cls-78 {
        stroke: #fff;
      }

      .cls-50, .cls-55 {
        stroke-width: 7px;
      }

      .cls-50 {
        opacity: 0;
      }

      .cls-51 {
        stroke-width: 0.75px;
      }

      .cls-52 {
        font-size: 50px;
      }

      .cls-52, .cls-79 {
        font-family: Lato-Black, Lato;
        font-weight: 800;
      }

      .cls-53, .cls-54, .cls-56, .cls-57 {
        font-family: Lato-Regular, Lato;
      }

      .cls-53, .cls-54, .cls-57 {
        font-weight: 400;
      }

      .cls-54 {
        font-size: 38px;
      }

      .cls-56, .cls-57, .cls-59 {
        font-size: 42px;
      }

      .cls-58 {
        font-size: 46px;
      }

      .cls-60 {
        fill: #284912;
      }

      .cls-60, .cls-61 {
        stroke: #315b16;
      }

      .cls-61, .cls-62 {
        fill: #315b16;
      }

      .cls-63 {
        fill: #a37f5d;
      }

      .cls-64 {
        fill: #93551d;
      }

      .cls-65 {
        fill: #c6884f;
      }

      .cls-66 {
        fill: #7f5739;
      }

      .cls-67 {
        fill: #c18148;
      }

      .cls-68 {
        fill: #916d4d;
      }

      .cls-69 {
        fill: #b78155;
      }

      .cls-70 {
        stroke: #443517;
      }

      .cls-74 {
        font-size: 31px;
        font-family: Lato-Bold, Lato;
        font-weight: 700;
      }

      .cls-75 {
        stroke: #1e2308;
      }

      .cls-76, .cls-84 {
        stroke-width: 6px;
      }

      .cls-79 {
        font-size: 48px;
      }

      .cls-80 {
        letter-spacing: -0.1em;
      }

      .cls-81 {
        fill: #eab0e4;
      }

      .cls-82 {
        stroke: #b7e5e1;
        stroke-width: 12px;
      }

      .cls-83 {
        fill: #b7eaea;
      }
    </style>
    <linearGradient id="linear-gradient" x1="1244.8" y1="333.8" x2="289.64" y2="2764.46" gradientUnits="userSpaceOnUse">
      <stop offset="0.01" stop-color="#291e7a"/>
      <stop offset="0.22" stop-color="#291e7a"/>
      <stop offset="0.27" stop-color="#291e75"/>
      <stop offset="0.49" stop-color="#291e64"/>
      <stop offset="0.6" stop-color="#291e54"/>
      <stop offset="0.7" stop-color="#291e4c"/>
      <stop offset="0.72" stop-color="#291e4d"/>
      <stop offset="0.98" stop-color="#291e50"/>
    </linearGradient>
    <filter id="AI_GaussianBlur_7" name="AI_GaussianBlur_7">
      <feGaussianBlur stdDeviation="7"/>
    </filter>
    <linearGradient id="linear-gradient-2" x1="1156.57" y1="350.39" x2="-148.35" y2="2522.13" gradientUnits="userSpaceOnUse">
      <stop offset="0" stop-color="#81fdbd" stop-opacity="0.35"/>
      <stop offset="0.04" stop-color="#81fdbd" stop-opacity="0.2"/>
      <stop offset="0.13" stop-color="#81fdc7" stop-opacity="0.17"/>
      <stop offset="0.37" stop-color="#80fedb" stop-opacity="0.1"/>
      <stop offset="0.64" stop-color="#7fffe7" stop-opacity="0.06"/>
      <stop offset="0.98" stop-color="#7fffeb" stop-opacity="0.05"/>
    </linearGradient>
    <linearGradient id="linear-gradient-3" x1="1351.03" y1="438.99" x2="-34.68" y2="2745.21" xlink:href="#linear-gradient-2"/>
    <linearGradient id="linear-gradient-4" x1="1510.56" y1="494.96" x2="163.02" y2="2737.65" xlink:href="#linear-gradient-2"/>
    <linearGradient id="linear-gradient-5" x1="1683.24" y1="555.22" x2="360.99" y2="2755.82" xlink:href="#linear-gradient-2"/>
  </defs>
  <title>tidslinje</title>
  <g id="havet">
    <rect id="vand" class="cls-1" x="0.24" y="215.11" width="1600" height="2500"/>
    <rect id="himmel" class="cls-2" x="-25" y="0.14" width="1626.24" height="321.1"/>
    <g id="waves">
      <path class="cls-3" d="M1666,294.86v58.31H-25V304.23C-1.78,290.62,42.06,287,87.23,287.73c72.33,1.15,196,28.11,232.84,27.3,69.16-1.53,212.13-34,249.74-33.68,70.51.69,225.88,32.85,271.69,31.15,75-2.79,190.1-32.64,214.47-34.71,54-4.6,110.91,5.9,142.83,13.42l3.27.78c6.38,1.54,11.61,2.92,15.4,4,4.54,1.26,7,2,7,2,1.15.37,2.33.72,3.51,1.06,1.38.4,2.79.79,4.21,1.16,6.35,1.69,13,3.1,19.84,4.27,7.12,1.22,14.48,2.19,22,2.93l2.22.21c1.58.15,3.16.29,4.76.42l.64.06c2.48.18,5,.36,7.49.52q4,.24,8.08.41c5.25.22,10.54.36,15.82.42,1.66,0,3.32,0,5,0,4.74,0,9.49,0,14.21-.12l2.56-.06c5.93-.14,11.82-.36,17.63-.65l2.17-.11,1.79-.09q9.78-.52,19.14-1.28,4.92-.37,9.69-.81c6.78-.61,13.31-1.26,19.52-1.95,2.19-.24,4.35-.49,6.46-.74h0c8.33-1,16-2,22.67-2.94,18.55-2.63,30.1-4.83,30.1-4.83C1544.17,256.33,1666,294.86,1666,294.86Z"/>
    </g>
  </g>
  <g id="suppe">
    <g>
      <path class="cls-4" d="M1080,338.54l-18.83,53.07a8,8,0,0,1-8,5.29c-22.37-1.32-99.45-7.27-90.22-25.9a7.55,7.55,0,0,1,4.17-3.62l102.5-39A8,8,0,0,1,1080,338.54Z"/>
      <path class="cls-5" d="M1087.68,305.62l17.67-36.11a6.39,6.39,0,0,1,4.71-3.51c9.07-1.45,34.13-2.54,43,27.33a6.55,6.55,0,0,1-.34,4.59l-30.57,65.23a6.41,6.41,0,0,1-9,2.84l-34.19-19.71a6.42,6.42,0,0,1-2.85-7.68l11.31-32.28A5.42,5.42,0,0,1,1087.68,305.62Z"/>
      <path class="cls-6" d="M1129.84,258.49c3.78-.11,14.3.36,18.6,8.63a2.19,2.19,0,0,1,0,1.9l-3,6.52a2.22,2.22,0,0,1-2.09,1.24,27.51,27.51,0,0,1-18.19-7.74,2.18,2.18,0,0,1-.45-2.46l3.19-6.85A2.19,2.19,0,0,1,1129.84,258.49Z"/>
      <path class="cls-7" d="M1073.09,281.63c4,.42,34.21,4.77,45.49,38.62h-82.16l35.95-38.35A.86.86,0,0,1,1073.09,281.63Z"/>
      <path class="cls-8" d="M1056.24,300.92h47.35a17.41,17.41,0,0,1,17.41,17.4v35a17.39,17.39,0,0,1-15.46,17.29c-14.12,1.59-35.18,3.26-51.3,1.53a17.34,17.34,0,0,1-15.4-17.29V318.32A17.4,17.4,0,0,1,1056.24,300.92Z"/>
      <path class="cls-9" d="M922.07,402l14.24,11.87a13.36,13.36,0,0,0,14,1.92l30.55-13.75a13.35,13.35,0,0,0,7.47-15.4l-4-16a13.34,13.34,0,0,0-15-9.93L930.44,367a13.32,13.32,0,0,0-11.05,11l-1.93,11.64A13.36,13.36,0,0,0,922.07,402Z"/>
      <path class="cls-10" d="M763,386.41s99.74,8.43,105.45-20L780.8,333.57S746.08,362.24,763,386.41Z"/>
      <rect class="cls-11" x="832.3" y="296.12" width="128.07" height="77.46" rx="12" transform="translate(1347.46 -508.96) rotate(97.65)"/>
      <path class="cls-12" d="M990.38,242.12,913.32,297.7a11.77,11.77,0,0,0-4.9,10c.71,16.39,7.59,59.47,58.5,80.73a11.78,11.78,0,0,0,11.39-1.35L1055,331.77a11.81,11.81,0,0,0,2.67-16.5l-50.83-70.48A11.82,11.82,0,0,0,990.38,242.12Z"/>
      <path class="cls-13" d="M701.43,368.38s33.91,18.7,63.63,11.39l29-80.69s-56.84,10.67-88.71-15.87Z"/>
      <path class="cls-14" d="M705.31,284.21S736.18,309.3,794,300.08C794,300.08,745.85,269.36,705.31,284.21Z"/>
      <path class="cls-15" d="M793.81,350.42l-11.12-41A20.5,20.5,0,0,1,789,288.6c10-8.74,27.84-18.15,51.44-5.89A20.1,20.1,0,0,1,850.27,295l19.91,68.76a20.54,20.54,0,0,1-15.71,25.86l-25,5a20.53,20.53,0,0,1-23.07-12.47l-11.86-29.43A18.3,18.3,0,0,1,793.81,350.42Z"/>
      <path class="cls-16" d="M784.35,267.69c5.73-5.34,22.74-19,40.72-12a4.46,4.46,0,0,1,2.65,2.89l4.17,14.29a4.53,4.53,0,0,1-1.56,4.78c-5.38,4.37-19.63,14.08-38.85,12.78a4.52,4.52,0,0,1-4.06-3.22l-4.37-15A4.48,4.48,0,0,1,784.35,267.69Z"/>
      <path class="cls-17" d="M1017.3,261.5s72.87-20,29.35,40.69"/>
    </g>
    <g id="lillewave">
      <path class="cls-3" d="M1668,358.31V417H-42V367.74C-14.14,351.49,43.07,349.41,97.06,352c64.37,3,124.17,12.64,124.17,12.64,43.18,33.54,286.14-18.33,316-19.56,77-3.18,245.43,32.4,289.33,31.27,78.61-2,224.86-37.09,261.77-36.2,42.18,1,82.25,8.68,107.23,14.53,1.13.26,2.24.52,3.31.79,6.45,1.55,11.74,2.93,15.57,4,4.59,1.27,7.12,2,7.12,2,1.16.38,2.36.73,3.55,1.07,1.39.4,2.82.8,4.26,1.17q9.63,2.55,20.06,4.3c7.2,1.22,14.64,2.2,22.24,2.95l2.24.21c1.6.15,3.2.29,4.81.42l.65.06c2.51.18,5,.36,7.58.52q4.08.24,8.17.42c5.31.22,10.66.36,16,.42,1.68,0,3.36,0,5,0,4.79,0,9.6,0,14.37-.12l2.59-.06q9-.21,17.83-.66l2.19-.11,1.81-.09c6.59-.35,13.06-.78,19.36-1.29q5-.37,9.8-.81c6.85-.62,13.46-1.27,19.73-2l6.54-.75h0c8.42-1,16.14-2,22.92-3,18.76-2.64,30.44-4.86,30.44-4.86C1544.8,319.54,1668,358.31,1668,358.31Z"/>
    </g>
  </g>
  <g id="plastikpose">
    <path class="cls-18" d="M846.08,256.94l-46,61.24a9.49,9.49,0,0,0-1.37,8.91c4.48,12.44,20.09,44,64.37,48.13a9.45,9.45,0,0,0,8.44-3.77l45.82-61a9.54,9.54,0,0,0-1.89-13.35l-56-42.08A9.53,9.53,0,0,0,846.08,256.94Z"/>
    <path class="cls-19" d="M869.58,266.13s51.3-32.87,32.34,24.29"/>
  </g>
  <g id="flydendevatpind">
    <rect class="cls-20" x="1122.8" y="285.8" width="3.98" height="60.02" transform="translate(525.37 -686.98) rotate(43.45)"/>
    <ellipse class="cls-20" cx="1147.61" cy="291.72" rx="6.36" ry="4.37" transform="translate(146.62 924.27) rotate(-46.55)"/>
    <ellipse class="cls-20" cx="1102.23" cy="339.62" rx="6.36" ry="4.37" transform="translate(97.67 906.29) rotate(-46.55)"/>
  </g>
  <g id="plastik1">
    <path id="sugerør" class="cls-21" d="M989.27,317.75s-1,2.66-4.47,1.62l-23.14-63.78s-1.57-5.41-3.73-6l-23.09-10s-1.13-1,1.13-5.46l24.22,11a8.5,8.5,0,0,1,5.9,6.6Z"/>
    <path class="cls-22" d="M933.65,280.31s38.81,15.6,77.06-12.05l-.44,81.34-45.85,8.72Z"/>
    <path class="cls-23" d="M933.57,280.83s52.41-26.14,77.06-12.06C1010.63,268.77,977,296.05,933.57,280.83Z"/>
  </g>
  <g id="faldeneplastik">
    <g>
      <path class="cls-24" d="M703.2,394.12c6.7,2,29.26,6.46,54.09-14.95a3.67,3.67,0,0,0,1.27-3.75l-16.22-57.31-12.12-42.85a3.69,3.69,0,0,0-3.09-2.54c-7.47-1.17-30.52-2.86-53.57,15a3.7,3.7,0,0,0-1.44,3.9L700.7,391.72A3.6,3.6,0,0,0,703.2,394.12Z"/>
      <path class="cls-25" d="M684.68,266.89c3.15-3,12.5-10.65,22.45-6.4a2.6,2.6,0,0,1,1.47,1.7l2.35,8.28a2.62,2.62,0,0,1-.85,2.73c-3,2.46-10.8,7.88-21.42,6.9a2.61,2.61,0,0,1-2.25-1.9L684,269.5A2.6,2.6,0,0,1,684.68,266.89Z"/>
    </g>
  </g>
  <g id="fisk">
    <path class="cls-26" d="M1167.3,1072c-28.93,16.52-98.9,66.8-.31,123.24a5.78,5.78,0,0,0,8.53-6.23l-11.15-51.1a5.86,5.86,0,0,1,0-2.36l11.49-57.41A5.78,5.78,0,0,0,1167.3,1072Z"/>
    <ellipse class="cls-27" cx="1046" cy="1133.5" rx="94" ry="60.5"/>
    <g>
      <path class="cls-28" d="M967.81,1099.14c-2.88,3.77-8,11-11,18a4.92,4.92,0,0,0,2.59,6.28c4,2.07,10.57,4.81,16.86,4.81,8.41,0,10.47-15.84,10.93-21.21a4.67,4.67,0,0,0-1.05-3.35c-1.82-2.24-5.71-6.14-11.32-7.11A7.36,7.36,0,0,0,967.81,1099.14Z"/>
      <path class="cls-29" d="M963,1105.92s12.33,9.3,10.51,22.14c0,0-7.68.57-18.55-7.15C955,1120.91,958.91,1108.94,963,1105.92Z"/>
      <path class="cls-30" d="M955.77,1148.21s21,5.33,28,12.28"/>
    </g>
  </g>
  <g id="fisk3">
    <g>
      <ellipse class="cls-31" cx="982.28" cy="741.49" rx="30.52" ry="13.55" transform="translate(-212.12 444.67) rotate(-23.09)"/>
      <ellipse class="cls-31" cx="982.28" cy="723.63" rx="13.55" ry="30.52" transform="translate(-68.63 1343.39) rotate(-66.91)"/>
      <ellipse class="cls-32" cx="1026.64" cy="734.24" rx="45.82" ry="25.28"/>
      <path class="cls-28" d="M1065.85,721.43a33.72,33.72,0,0,1,5.24,7c.48.91,0,1.93-1.24,2.43a22.15,22.15,0,0,1-8.07,1.87c-4,0-5-6.14-5.23-8.22a1.58,1.58,0,0,1,.5-1.3,9.73,9.73,0,0,1,5.42-2.76A4,4,0,0,1,1065.85,721.43Z"/>
      <path class="cls-29" d="M1068.15,724.05s-5.9,3.6-5,8.58c0,0,3.68.22,8.88-2.77C1072,729.86,1070.11,725.22,1068.15,724.05Z"/>
      <path class="cls-30" d="M1070.66,740.44s-10.07,2.06-13.4,4.76"/>
    </g>
    <g>
      <ellipse class="cls-32" cx="667.37" cy="711.85" rx="56.99" ry="25.3" transform="translate(-225.72 318.79) rotate(-23.09)"/>
      <ellipse class="cls-32" cx="667.37" cy="678.5" rx="25.3" ry="56.99" transform="translate(-218.51 1026.28) rotate(-66.91)"/>
      <ellipse class="cls-33" cx="750.2" cy="698.32" rx="85.55" ry="47.2"/>
      <path class="cls-28" d="M823.41,674.38c2.57,2.73,7.18,8,9.79,13,.88,1.71-.07,3.62-2.31,4.55-3.62,1.5-9.45,3.48-15.08,3.48-7.52,0-9.36-11.46-9.77-15.35a3,3,0,0,1,.94-2.42,18.22,18.22,0,0,1,10.12-5.15A7.52,7.52,0,0,1,823.41,674.38Z"/>
      <path class="cls-29" d="M827.7,679.29s-11,6.72-9.4,16c0,0,6.87.42,16.6-5.17C834.9,690.13,831.37,681.47,827.7,679.29Z"/>
      <path class="cls-30" d="M832.38,709.89s-18.79,3.85-25,8.88"/>
    </g>
    <g>
      <ellipse class="cls-33" cx="802.13" cy="839.18" rx="43.7" ry="19.4" transform="translate(-264.87 381.84) rotate(-23.09)"/>
      <ellipse class="cls-33" cx="802.13" cy="813.61" rx="19.4" ry="43.7" transform="translate(-260.89 1232.37) rotate(-66.91)"/>
      <ellipse class="cls-31" cx="865.65" cy="828.81" rx="65.6" ry="36.19"/>
      <path class="cls-28" d="M921.78,810.46a49,49,0,0,1,7.51,10c.68,1.31-.06,2.77-1.78,3.48A32,32,0,0,1,916,826.59c-5.77,0-7.18-8.79-7.49-11.76a2.25,2.25,0,0,1,.72-1.86,13.92,13.92,0,0,1,7.76-4A5.75,5.75,0,0,1,921.78,810.46Z"/>
      <path class="cls-29" d="M925.08,814.21s-8.46,5.16-7.21,12.29c0,0,5.27.32,12.72-4C930.59,822.53,927.88,815.89,925.08,814.21Z"/>
      <path class="cls-30" d="M928.66,837.68s-14.41,3-19.18,6.81"/>
    </g>
  </g>
  <g id="sol">
    <g id="solglow" class="cls-34">
      <circle class="cls-35" cx="1365.08" cy="142.71" r="123.91"/>
    </g>
    <circle id="solhel" class="cls-36" cx="1365.08" cy="142.71" r="98.92"/>
    <path id="stråle1" class="cls-37" d="M1252.07,304.47l-29.42,48.7L-96.79,2537.48l-72.33-93.8L1180.53,353.17,1217.47,296c4.54,1.26,7,2,7,2,1.15.37,2.33.72,3.51,1.06,1.38.4,2.79.79,4.21,1.16C1238.58,301.89,1245.21,303.3,1252.07,304.47Z"/>
    <path id="stråle2" class="cls-38" d="M1318.05,309.48l-21.68,43.69L89.49,2786-69,2708,1255.66,353.17,1281,308l.64.06c2.48.18,5,.36,7.49.52q4,.24,8.08.41c5.25.22,10.54.36,15.82.42C1314.73,309.46,1316.39,309.48,1318.05,309.48Z"/>
    <path id="stråle3" class="cls-39" d="M1375.55,307.17l-18.11,46L392,2806l-115-16L1333.15,353.17l19.3-44.52,2.17-.11,1.79-.09Q1366.19,307.93,1375.55,307.17Z"/>
    <path id="stråle4" class="cls-40" d="M1433.9,300.73l-14.75,52.44L707.76,2883l-116-4.34L1395.47,353.17l15.75-49.5h0C1419.56,302.69,1427.19,301.68,1433.9,300.73Z"/>
  </g>
  <g id="flaske">
    <g>
      <path class="cls-41" d="M1324.82,2556.47c6.06,9.7,29,39.45,82.59,39.9a6,6,0,0,0,5.6-3.25l41.83-87.9,31.27-65.72a6,6,0,0,0-1.07-6.45c-7.92-9.5-34.42-36.42-82-39.26a6,6,0,0,0-6,3.25l-72.7,153.79A5.84,5.84,0,0,0,1324.82,2556.47Z"/>
      <path class="cls-16" d="M1439.15,2380.13c7.12-.31,26.84.38,34.49,16.33a4.25,4.25,0,0,1,0,3.67l-6.05,12.7a4.27,4.27,0,0,1-4,2.45c-6.28-.17-21.76-2-33.75-14.61a4.25,4.25,0,0,1-.72-4.75l6.35-13.35A4.28,4.28,0,0,1,1439.15,2380.13Z"/>
    </g>
  </g>
  <g id="kop">
    <g>
      <path class="cls-13" d="M550,2527.36s44.2,24.37,82.94,14.84L670.68,2437s-74.09,13.9-115.64-20.7Z"/>
      <path class="cls-14" d="M555,2416.33s40.24,32.72,115.64,20.7C670.68,2437,607.89,2397,555,2416.33Z"/>
    </g>
  </g>
  <g id="sixpack">
    <g>
      <ellipse class="cls-42" cx="450.43" cy="2467.28" rx="36.39" ry="32.82"/>
      <ellipse class="cls-42" cx="467.37" cy="2540.78" rx="36.39" ry="32.82"/>
      <ellipse class="cls-42" cx="369.11" cy="2483.24" rx="36.39" ry="32.82"/>
      <ellipse class="cls-42" cx="385.59" cy="2556.48" rx="36.39" ry="32.82"/>
      <ellipse class="cls-42" cx="287.33" cy="2498.93" rx="36.39" ry="32.82"/>
      <ellipse class="cls-42" cx="303.81" cy="2572.17" rx="36.39" ry="32.82"/>
      <polygon class="cls-43" points="462.83 2508.1 460.57 2498.53 462.85 2498.1 465.1 2507.66 462.83 2508.1"/>
      <polygon class="cls-43" points="376.8 2524.25 374.55 2514.68 376.82 2514.25 379.07 2523.81 376.8 2524.25"/>
      <polygon class="cls-43" points="295.02 2539.94 292.76 2530.38 295.04 2529.94 297.29 2539.51 295.02 2539.94"/>
      <polygon class="cls-43" points="339.53 2564.24 350.13 2562.21 350.62 2564.26 340.02 2566.29 339.53 2564.24"/>
      <polygon class="cls-43" points="322.14 2490.47 332.74 2488.43 333.22 2490.49 322.62 2492.52 322.14 2490.47"/>
      <polygon class="cls-43" points="422.07 2548.4 432.68 2546.37 433.16 2548.42 422.56 2550.45 422.07 2548.4"/>
      <polygon class="cls-43" points="404.08 2475.46 414.68 2473.43 415.17 2475.47 404.56 2477.51 404.08 2475.46"/>
    </g>
  </g>
  <g id="slik">
    <g>
      <path class="cls-44" d="M252.18,2507.05l40-12a9.3,9.3,0,0,1,12,8.51c.31,7.22-1.1,16.21-8.45,22a9.18,9.18,0,0,0-3.3,8.63,25.71,25.71,0,0,1-.67,11.5,9.3,9.3,0,0,1-15.24,3.74l-28-26.68A9.32,9.32,0,0,1,252.18,2507.05Z"/>
      <path class="cls-44" d="M172.21,2486.69l-26.35-32.53a9.34,9.34,0,0,0-14.74.29c-4.33,5.82-8.23,14.08-5.4,23a9.23,9.23,0,0,1-2.13,9,25.62,25.62,0,0,0-5.93,9.91,9.32,9.32,0,0,0,10.52,11.7l38.3-6.31A9.34,9.34,0,0,0,172.21,2486.69Z"/>
      <ellipse class="cls-45" cx="212.91" cy="2501.09" rx="41.5" ry="55" transform="translate(-2240.06 1968.46) rotate(-72.88)"/>
    </g>
  </g>
  <g id="slik2">
    <g>
      <path class="cls-18" d="M1579.18,2498.05l40-12a9.3,9.3,0,0,1,12,8.51c.31,7.22-1.1,16.21-8.45,22a9.18,9.18,0,0,0-3.3,8.63,25.71,25.71,0,0,1-.67,11.5,9.3,9.3,0,0,1-15.24,3.74l-28-26.68A9.32,9.32,0,0,1,1579.18,2498.05Z"/>
      <path class="cls-18" d="M1511.21,2477.69l-26.35-32.53a9.34,9.34,0,0,0-14.74.29c-4.33,5.82-8.23,14.08-5.4,23a9.23,9.23,0,0,1-2.13,9,25.62,25.62,0,0,0-5.93,9.91,9.32,9.32,0,0,0,10.52,11.7l38.3-6.31A9.34,9.34,0,0,0,1511.21,2477.69Z"/>
      <ellipse class="cls-46" cx="1544.91" cy="2492.09" rx="41.5" ry="55" transform="translate(-1291.49 3235.11) rotate(-72.88)"/>
    </g>
  </g>
  <g id="sugerør-2" data-name="sugerør">
    <path id="sugerør-3" data-name="sugerør" class="cls-21" d="M432.78,2523.22s-3.31-2.9-.54-8.08l97.61-6.47s8.12.09,9.78-3.15l22.8-32.73s1.79-1.37,7.17,4.52L545,2511.41a11.7,11.7,0,0,1-11.44,6.38Z"/>
  </g>
  <g id="pose">
    <g>
      <path class="cls-12" d="M1213,2472.34,1255.92,2583a14.71,14.71,0,0,0,10.59,9.08c20,4.29,74.25,9.55,116-45.29a14.69,14.69,0,0,0,2-14.19l-42.73-110.14a14.76,14.76,0,0,0-19.1-8.43l-101.17,39.25A14.74,14.74,0,0,0,1213,2472.34Z"/>
      <path class="cls-47" d="M1242.22,2441.35s-1.25-94.37,58.41-22.66"/>
    </g>
  </g>
  <g id="havbund">
    <g>
      <path class="cls-48" d="M-93.5,2539.23a.5.5,0,0,0-.23-.43c-3.11-2-4.44-3.86-4-5.5,3.57-12.11,95.52-19.06,252.28-19.06,26.2,0,44.16.23,45.33.24,31.6,8.1,76,12.21,131.88,12.21,95.23,0,192.28-12.09,193.25-12.21,65.14-5.47,134.55-8.25,206.27-8.25,117.81,0,203.54,7.6,210.21,8.21.4,2.19,4.12,5.1,25.38,7,14.5,1.29,35.52,1.95,62.45,1.95,98.72,0,248.16-8.82,249.66-8.91,37.86-9.6,100.83-14.46,187.25-14.46,118.32,0,241.68,9.31,250.22,10v212.83l-1813,6.68Z"/>
      <path class="cls-48" d="M1466.28,2499.52v1c116.53,0,238,9,249.72,9.93v211.87L-96,2729l3-189.76a1,1,0,0,0-.46-.86c-2-1.29-4.26-3.19-3.74-4.94,1.17-4,15.27-11.27,96.56-15.47,51.81-2.67,113-3.23,155.25-3.23,25.82,0,43.64.22,45.26.24,31.63,8.1,76,12.21,131.94,12.21,95.26,0,192.35-12.09,193.27-12.21,65.16-5.47,134.55-8.25,206.25-8.25,116.06,0,201,7.38,209.82,8.18,1.49,4.36,15.1,9,88.22,9,98.74,0,248.19-8.82,249.69-8.91l.19,0c37.73-9.58,100.65-14.43,187-14.43v-1m0,0c-72.64,0-143.94,3.46-187.28,14.46,0,0-149.78,8.91-249.63,8.91-49.93,0-87.37-2.23-87.37-8.91,0,0-87.12-8.25-210.67-8.25-61.78,0-132.65,2.06-206.33,8.25,0,0-96.89,12.21-193.19,12.21-48.15,0-96.14-3.05-131.81-12.21,0,0-18.11-.24-45.39-.24-91,0-284,2.64-248.61,25.48L-97,2730l1814-6.68V2509.53s-127.27-10-250.72-10Z"/>
    </g>
  </g>
  <g id="vatpind">
    <rect class="cls-20" x="257.08" y="2496.13" width="6.36" height="96.09" transform="translate(-1987.33 1323.96) rotate(-55.66)"/>
    <ellipse class="cls-20" cx="216.39" cy="2514.21" rx="7" ry="10.18" transform="translate(-1981.7 1274.67) rotate(-55.66)"/>
    <ellipse class="cls-20" cx="303.61" cy="2573.79" rx="7" ry="10.18" transform="translate(-1992.88 1372.67) rotate(-55.66)"/>
  </g>
  <g id="timeline">
    <path class="cls-49" d="M178,312.41v25.7c-.72,0-1.44-.06-2.17-.08L174,338c-1,0-2,0-3,.05V312.41a3.41,3.41,0,0,1,3.41-3.41h.18A3.41,3.41,0,0,1,178,312.41Z"/>
    <path class="cls-49" d="M178,491.89v41.22c-.72,0-1.44-.06-2.17-.08L174,533c-1,0-2,0-3,0V492c1,0,2,.05,3,.05l1.83,0C176.56,492,177.28,491.93,178,491.89Z"/>
    <path class="cls-49" d="M178,686.89v41.22c-.72,0-1.44-.06-2.17-.08L174,728c-1,0-2,0-3,0V687c1,0,2,0,3,0l1.83,0C176.56,687,177.28,686.93,178,686.89Z"/>
    <path class="cls-49" d="M178,880.5v100c-.72-.1-1.44-.15-2.17-.19s-1.22-.08-1.83-.08c-1,0-2,0-3,.12v-99.7c1,.09,2,.12,3,.12.61,0,1.22,0,1.83-.08S177.28,880.6,178,880.5Z"/>
    <path class="cls-49" d="M178,1133.89v41.22c-.72,0-1.44-.06-2.17-.08l-1.83,0c-1,0-2,0-3,0V1134c1,0,2,0,3,0l1.83,0C176.56,1134,177.28,1133.93,178,1133.89Z"/>
    <path class="cls-49" d="M178,1328.89v41.22c-.72,0-1.44-.06-2.17-.08l-1.83,0c-1,0-2,0-3,0V1329c1,0,2,0,3,0l1.83,0C176.56,1329,177.28,1328.93,178,1328.89Z"/>
    <path class="cls-49" d="M178,1523.89v41.22c-.72,0-1.44-.06-2.17-.08l-1.83,0c-1,0-2,0-3,0V1524c1,0,2,0,3,0l1.83,0C176.56,1524,177.28,1523.93,178,1523.89Z"/>
    <path class="cls-49" d="M178,1718.89v41.22c-.72,0-1.44-.06-2.17-.08l-1.83,0c-1,0-2,0-3,0V1719c1,0,2,0,3,0l1.83,0C176.56,1719,177.28,1718.93,178,1718.89Z"/>
    <path class="cls-49" d="M178,1759.5v110c-.72-.11-1.44-.16-2.17-.21s-1.22-.08-1.83-.08a27.16,27.16,0,0,0-3,.13V1759.66a27.16,27.16,0,0,0,3,.13c.61,0,1.22,0,1.83-.08S177.28,1759.61,178,1759.5Z"/>
    <path class="cls-49" d="M178,2024.89v41.22c-.72,0-1.44-.06-2.17-.08s-1.22,0-1.83,0c-1,0-2,0-3,.05V2025c1,0,2,0,3,0l1.83,0C176.56,2025,177.28,2024.93,178,2024.89Z"/>
    <path class="cls-49" d="M178,2221.89v41.22c-.72,0-1.44-.06-2.17-.08s-1.22,0-1.83,0c-1,0-2,0-3,.05V2222c1,0,2,.05,3,.05q.92,0,1.83,0C176.56,2222,177.28,2221.93,178,2221.89Z"/>
    <path class="cls-49" d="M178,2416.89v33.7a3.41,3.41,0,0,1-3.41,3.41h-.18a3.41,3.41,0,0,1-3.41-3.41V2417c1,0,2,.05,3,.05q.92,0,1.83,0C176.56,2417,177.28,2416.93,178,2416.89Z"/>
  </g>
  <g id="boble2">
    <g>
      <g id="booble2">
        <path class="cls-50" d="M251,415a77,77,0,0,1-73,76.89c-.72,0-1.44.06-2.17.08L174,492c-1,0-2,0-3-.05l-1.26-.07a77,77,0,0,1,0-153.76l1.26-.07c1,0,2-.05,3-.05l1.83,0c.73,0,1.45,0,2.17.08A77,77,0,0,1,251,415Z"/>
        <rect class="cls-51" x="250.33" y="413.26" width="400" height="6.09" rx="3.05"/>
        <text class="cls-52" transform="translate(265.74 409.71)">150<tspan class="cls-53" x="87" y="0"> </tspan><tspan class="cls-54" x="96.65" y="0">mio tons plastik</tspan></text>
      </g>
      <path id="ring" class="cls-50" d="M251,417a77,77,0,0,1-73,76.89c-.72,0-1.44.06-2.17.08L174,494c-1,0-2,0-3-.05l-1.26-.07a77,77,0,0,1,0-153.76l1.26-.07c1,0,2-.05,3-.05l1.83,0c.73,0,1.45,0,2.17.08A77,77,0,0,1,251,417Z"/>
      <path id="ring-2" data-name="ring" class="cls-55" d="M251,417a77,77,0,0,1-73,76.89c-.72,0-1.44.06-2.17.08L174,494c-1,0-2,0-3-.05l-1.26-.07a77,77,0,0,1,0-153.76l1.26-.07c1,0,2-.05,3-.05l1.83,0c.73,0,1.45,0,2.17.08A77,77,0,0,1,251,417Z"/>
      <text class="cls-56" transform="translate(125.1 432.22)">2019</text>
    </g>
  </g>
  <g id="boble3">
    <path class="cls-50" d="M251,608a77,77,0,0,1-73,76.89c-.72,0-1.44.06-2.17.08L174,685c-1,0-2,0-3,0l-1.26-.07a77,77,0,0,1,0-153.76l1.26-.07c1,0,2,0,3,0l1.83,0c.73,0,1.45,0,2.17.08A77,77,0,0,1,251,608Z"/>
    <g>
      <text class="cls-56" transform="translate(126.1 624.22)">2020</text>
      <rect class="cls-51" x="250.33" y="606.26" width="400" height="6.09" rx="3.05"/>
      <text class="cls-52" transform="translate(265.74 602.7)">158<tspan class="cls-57" x="87" y="0"> </tspan><tspan class="cls-54" x="95.1" y="0">mio tons plastik</tspan></text>
    </g>
    <path class="cls-55" d="M251,608a77,77,0,0,1-73,76.89c-.72,0-1.44.06-2.17.08L174,685c-1,0-2,0-3,0l-1.26-.07a77,77,0,0,1,0-153.76l1.26-.07c1,0,2,0,3,0l1.83,0c.73,0,1.45,0,2.17.08A77,77,0,0,1,251,608Z"/>
  </g>
  <g id="boble4">
    <g>
      <path class="cls-50" d="M251,803a77,77,0,0,1-73,76.89c-.72,0-1.44.06-2.17.08L174,880c-1,0-2,0-3,0l-1.26-.07a77,77,0,0,1,0-153.76l1.26-.07c1,0,2,0,3,0l1.83,0c.73,0,1.45,0,2.17.08A77,77,0,0,1,251,803Z"/>
      <path class="cls-55" d="M251,803a77,77,0,0,1-73,76.89c-.72,0-1.44.06-2.17.08L174,880c-1,0-2,0-3,0l-1.26-.07a77,77,0,0,1,0-153.76l1.26-.07c1,0,2,0,3,0l1.83,0c.73,0,1.45,0,2.17.08A77,77,0,0,1,251,803Z"/>
      <text class="cls-56" transform="translate(126.1 818.22)">2021</text>
      <rect class="cls-51" x="250.33" y="801.26" width="400" height="6.09" rx="3.05"/>
      <text class="cls-52" transform="translate(265.74 797.7)">166<tspan class="cls-58" x="87" y="0"> </tspan><tspan class="cls-54" x="95.88" y="0">mio tons plas</tspan><tspan class="cls-57" x="311.98" y="0">tik</tspan></text>
    </g>
  </g>
  <g id="boble5">
    <g>
      <path class="cls-50" d="M251,1058a77,77,0,0,1-73,76.89c-.72,0-1.44.06-2.17.08l-1.83,0c-1,0-2,0-3,0l-1.26-.07a77,77,0,0,1,0-153.76l1.26-.07c1,0,2,0,3,0l1.83,0c.73,0,1.45,0,2.17.08A77,77,0,0,1,251,1058Z"/>
      <path class="cls-55" d="M251,1058a77,77,0,0,1-73,76.89c-.72,0-1.44.06-2.17.08l-1.83,0c-1,0-2,0-3,0l-1.26-.07a77,77,0,0,1,0-153.76l1.26-.07c1,0,2,0,3,0l1.83,0c.73,0,1.45,0,2.17.08A77,77,0,0,1,251,1058Z"/>
      <text class="cls-56" transform="translate(125.1 1074.22)">2022</text>
      <rect class="cls-51" x="250.33" y="1056.26" width="400" height="6.09" rx="3.05"/>
      <text class="cls-52" transform="translate(265.74 1052.7)">174<tspan class="cls-59" x="87" y="0"> </tspan><tspan class="cls-54" x="95.1" y="0">mio tons plastik</tspan></text>
    </g>
  </g>
  <g id="boble6">
    <g>
      <path class="cls-50" d="M251,1253.22a77,77,0,0,1-72.86,77c-.72,0-1.44.06-2.17.08l-1.83,0c-1,0-2,0-3,0l-1.26-.07a77,77,0,0,1-.28-153.76l1.26-.07q1.48-.06,3-.06.91,0,1.83,0c.73,0,1.45,0,2.17.08A77,77,0,0,1,251,1253.22Z"/>
      <path class="cls-55" d="M251,1253.22a77,77,0,0,1-72.86,77c-.72,0-1.44.06-2.17.08l-1.83,0c-1,0-2,0-3,0l-1.26-.07a77,77,0,0,1-.28-153.76l1.26-.07q1.48-.06,3-.06.91,0,1.83,0c.73,0,1.45,0,2.17.08A77,77,0,0,1,251,1253.22Z"/>
      <text class="cls-56" transform="translate(125.16 1269.66) rotate(-0.1)">2023</text>
      <rect class="cls-51" x="250.33" y="1251.12" width="400" height="6.09" rx="3.05" transform="translate(-2.22 0.8) rotate(-0.1)"/>
      <text class="cls-52" transform="translate(265.74 1247.9) rotate(-0.1)">182<tspan class="cls-57" x="87" y="0"> </tspan><tspan class="cls-54" x="95.1" y="0">mio tons plastik</tspan></text>
    </g>
  </g>
  <g id="boble7">
    <g>
      <path class="cls-50" d="M251,1448a77,77,0,0,1-73,76.89c-.72,0-1.44.06-2.17.08l-1.83,0c-1,0-2,0-3,0l-1.26-.07a77,77,0,0,1,0-153.76l1.26-.07c1,0,2,0,3,0l1.83,0c.73,0,1.45,0,2.17.08A77,77,0,0,1,251,1448Z"/>
      <path class="cls-55" d="M251,1448a77,77,0,0,1-73,76.89c-.72,0-1.44.06-2.17.08l-1.83,0c-1,0-2,0-3,0l-1.26-.07a77,77,0,0,1,0-153.76l1.26-.07c1,0,2,0,3,0l1.83,0c.73,0,1.45,0,2.17.08A77,77,0,0,1,251,1448Z"/>
      <text class="cls-56" transform="translate(125.1 1466.22)">2024</text>
      <rect class="cls-51" x="250.33" y="1446.26" width="400" height="6.09" rx="3.05"/>
      <text class="cls-52" transform="translate(265.74 1442.7)">190<tspan class="cls-57" x="87" y="0"> </tspan><tspan class="cls-54" x="95.1" y="0">mio tons plastik</tspan></text>
    </g>
  </g>
  <g id="boble8">
    <g>
      <path class="cls-50" d="M251,1642a77,77,0,0,1-73,76.89c-.72,0-1.44.06-2.17.08l-1.83,0c-1,0-2,0-3,0l-1.26-.07a77,77,0,0,1,0-153.76l1.26-.07c1,0,2,0,3,0l1.83,0c.73,0,1.45,0,2.17.08A77,77,0,0,1,251,1642Z"/>
      <path class="cls-55" d="M251,1642a77,77,0,0,1-73,76.89c-.72,0-1.44.06-2.17.08l-1.83,0c-1,0-2,0-3,0l-1.26-.07a77,77,0,0,1,0-153.76l1.26-.07c1,0,2,0,3,0l1.83,0c.73,0,1.45,0,2.17.08A77,77,0,0,1,251,1642Z"/>
      <text class="cls-56" transform="translate(125.1 1659.22)">2025</text>
      <rect class="cls-51" x="250.33" y="1640.26" width="400" height="6.09" rx="3.05"/>
      <text class="cls-52" transform="translate(265.74 1636.7)">198<tspan class="cls-58" x="87" y="0"> </tspan><tspan class="cls-54" x="95.88" y="0">mio tons plastik</tspan></text>
    </g>
  </g>
  <g id="boble9">
    <g>
      <path class="cls-50" d="M251,1948a77,77,0,0,1-73,76.89c-.72,0-1.44.06-2.17.08l-1.83,0c-1,0-2,0-3,0l-1.26-.07a77,77,0,0,1,0-153.76l1.26-.07c1,0,2,0,3,0l1.83,0c.73,0,1.45,0,2.17.08A77,77,0,0,1,251,1948Z"/>
      <path class="cls-55" d="M251,1948a77,77,0,0,1-73,76.89c-.72,0-1.44.06-2.17.08l-1.83,0c-1,0-2,0-3,0l-1.26-.07a77,77,0,0,1,0-153.76l1.26-.07c1,0,2,0,3,0l1.83,0c.73,0,1.45,0,2.17.08A77,77,0,0,1,251,1948Z"/>
      <text class="cls-56" transform="translate(126.1 1966.22)">2026</text>
      <rect class="cls-51" x="250.33" y="1946.26" width="400" height="6.09" rx="3.05"/>
      <text class="cls-52" transform="translate(265.74 1942.7)">206<tspan class="cls-58" x="87" y="0"> </tspan><tspan class="cls-54" x="95.88" y="0">mio tons plastik</tspan></text>
    </g>
  </g>
  <g id="boble10">
    <g>
      <path class="cls-50" d="M251,2143a77,77,0,0,1-73,76.89c-.72,0-1.44.06-2.17.08s-1.22,0-1.83,0c-1,0-2,0-3-.05l-1.26-.07a77,77,0,0,1,0-153.76l1.26-.07c1,0,2-.05,3-.05q.92,0,1.83,0c.73,0,1.45,0,2.17.08A77,77,0,0,1,251,2143Z"/>
      <path class="cls-55" d="M251,2143a77,77,0,0,1-73,76.89c-.72,0-1.44.06-2.17.08s-1.22,0-1.83,0c-1,0-2,0-3-.05l-1.26-.07a77,77,0,0,1,0-153.76l1.26-.07c1,0,2-.05,3-.05q.92,0,1.83,0c.73,0,1.45,0,2.17.08A77,77,0,0,1,251,2143Z"/>
      <text class="cls-56" transform="translate(125.1 2160.22)">2027</text>
      <rect class="cls-51" x="250.33" y="2141.26" width="400" height="6.09" rx="3.05"/>
      <text class="cls-52" transform="translate(265.74 2137.7)">214<tspan class="cls-57" x="87" y="0"> </tspan><tspan class="cls-54" x="95.1" y="0">mio tons plastik</tspan></text>
    </g>
  </g>
  <g id="boble11">
    <g>
      <path class="cls-50" d="M251,2338a77,77,0,0,1-73,76.89c-.72,0-1.44.06-2.17.08s-1.22,0-1.83,0c-1,0-2,0-3-.05l-1.26-.07a77,77,0,0,1,0-153.76l1.26-.07c1,0,2-.05,3-.05q.92,0,1.83,0c.73,0,1.45,0,2.17.08A77,77,0,0,1,251,2338Z"/>
      <path class="cls-55" d="M251,2338a77,77,0,0,1-73,76.89c-.72,0-1.44.06-2.17.08s-1.22,0-1.83,0c-1,0-2,0-3-.05l-1.26-.07a77,77,0,0,1,0-153.76l1.26-.07c1,0,2-.05,3-.05q.92,0,1.83,0c.73,0,1.45,0,2.17.08A77,77,0,0,1,251,2338Z"/>
      <text class="cls-56" transform="translate(125.1 2358.22)">2028</text>
      <rect class="cls-51" x="248.91" y="2342.35" width="400" height="6.09" rx="3.05"/>
      <text class="cls-52" transform="translate(265.74 2338.7)">222<tspan class="cls-57" x="87" y="0"> </tspan><tspan class="cls-54" x="95.1" y="0">mio tons plastik</tspan></text>
    </g>
  </g>
  <g id="skilpadde">
    <g id="bobble">
      <g>
        <g>
          <path class="cls-60" d="M1397.1,576.58l-16.56-15.45s-15.8,38.07-.18,52.27c0,0,20.54,6.73,24.5-7.28Z"/>
          <path class="cls-60" d="M1490,585.79l-25.43,7.2s23.44,28.83,34.59,28c0,0,21.51,2.3,15.22-11.5S1490,585.79,1490,585.79Z"/>
          <path class="cls-61" d="M1427.6,586.5l-20-7.83c-6.43-2.51-13.73,1.81-12.57,7.43,2.68,13,9.12,31.76,24.29,37.7a9.33,9.33,0,0,0,1.42.42c5.41,1.21,37,7.44,31.71-13.86a6.74,6.74,0,0,0-2.63-3.7c-4.35-3.2-14.76-11.22-18.28-17A8,8,0,0,0,1427.6,586.5Z"/>
          <path class="cls-61" d="M1515,578.42l-16.9,6.87c-2.33.94-3.19,3.25-1.87,5.05,6.34,8.61,24.44,30.94,41.91,31.26a6.79,6.79,0,0,0,.78,0c3.87-.48,33.26-4.79,15.27-25.29a4.81,4.81,0,0,0-3-1.48c-5.39-.71-21.61-3.75-30.3-15.08A5.22,5.22,0,0,0,1515,578.42Z"/>
          <path class="cls-62" d="M1370.36,530.9l-29.83-5s-46.7-56.35-72,5c0,0-36.32,16.18-6.49,41.85,0,0,39.57,21.76,69.41-10.6,0,0,47.35,3.35,46.7,7.81C1378.15,570,1382.69,533.13,1370.36,530.9Z"/>
          <polygon class="cls-63" points="1511.2 541.23 1490.56 573.59 1458.19 573.59 1439.78 545.69 1457.64 518.35 1486.09 518.35 1511.2 541.23"/>
          <path class="cls-64" d="M1409.09,543.46H1442l17.86-27.9-9.31-17.23s-45.65-3.55-45,.7l-14.93,19.32Z"/>
          <path class="cls-65" d="M1355.44,518.22l37.4-2.66,12.91-16.74S1363.16,510.84,1355.44,518.22Z"/>
          <path class="cls-66" d="M1459.87,574.14,1442,543.46h-32.92l-28.45,25.66s9.48,14.51,22.88,19.53c0,0,25.1,13.39,38.49,9.49Z"/>
          <path class="cls-67" d="M1511.2,587l-20.64-16.74-32.92,3.35-17.86,24.55S1471,603.72,1511.2,587Z"/>
          <path class="cls-68" d="M1532.5,539.22l-20.86-.23L1490,569.78l21.64,17.76s36.86-19.54,38.62-32Z"/>
          <path class="cls-66" d="M1535.19,542.9H1512L1484.42,517l9.58-5.86S1527.85,525.37,1535.19,542.9Z"/>
          <path class="cls-69" d="M1380.64,570.24s-25.67-27.34-25.11-51.89l37.38-2.79,16.18,27.9Z"/>
          <path class="cls-69" d="M1493.9,511.1l-9.48,8.92-27.52.18-6.52-21.38S1479.4,501.61,1493.9,511.1Z"/>
          <path class="cls-70" d="M1552.49,559.08s-22.24,32.47-79.12,39.95c0,0-60,10.39-89.2-23.71,0,0-32.59-29.63-30.87-57"/>
          <path class="cls-28" d="M1278.71,514.31A62.47,62.47,0,0,0,1271,527a3.46,3.46,0,0,0,1.82,4.43c2.85,1.46,7.45,3.39,11.88,3.39,5.93,0,7.38-11.17,7.7-14.95a3.28,3.28,0,0,0-.74-2.36,13.68,13.68,0,0,0-8-5A5.17,5.17,0,0,0,1278.71,514.31Z"/>
          <path class="cls-29" d="M1275.32,519.08s8.69,6.56,7.41,15.61c0,0-5.42.4-13.08-5C1269.65,529.65,1272.43,521.21,1275.32,519.08Z"/>
        </g>
        <path class="cls-71" d="M1423.73,422.6a49.6,49.6,0,0,1-47,49.54l-1.39.05-1.18,0c-.65,0-1.3,0-1.93,0l-.82-.05a49.6,49.6,0,0,1,0-99.05l.82-.05c.63,0,1.28,0,1.93,0l1.18,0,1.39.05A49.59,49.59,0,0,1,1423.73,422.6Z"/>
        <path class="cls-72" d="M1395,390s11.61,5.78,9.9,15.2"/>
        <circle class="cls-73" cx="1333.12" cy="486.93" r="15.38"/>
        <text class="cls-74" transform="translate(1335.95 436.93)">INFO</text>
      </g>
    </g>
  </g>
  <g id="storskilpadde">
    <g>
      <path class="cls-60" d="M990.3,2445.05l27-31.71s25.77,78.13.29,107.26c0,0-33.51,13.83-40-14.93Z"/>
      <path class="cls-60" d="M838.68,2464l41.48,14.77s-38.23,59.17-56.44,57.35c0,0-35.08,4.71-24.82-23.59S838.68,2464,838.68,2464Z"/>
      <path class="cls-61" d="M940.53,2465.42l32.62-16.07a14.37,14.37,0,0,1,20.51,15.24c-4.38,26.63-14.88,65.18-39.62,77.36a13.08,13.08,0,0,1-2.33.87c-8.82,2.48-60.4,15.26-51.72-28.45a14.1,14.1,0,0,1,4.28-7.58c7.1-6.58,24.08-23,29.83-34.81A14.15,14.15,0,0,1,940.53,2465.42Z"/>
      <path class="cls-61" d="M797.9,2448.83l27.58,14.09a7.43,7.43,0,0,1,3,10.37c-10.34,17.67-39.86,63.49-68.36,64.15a9.07,9.07,0,0,1-1.28-.09c-6.32-1-54.26-9.82-24.91-51.89a7.41,7.41,0,0,1,4.83-3c8.79-1.46,35.26-7.69,49.43-30.93A7.38,7.38,0,0,1,797.9,2448.83Z"/>
      <path class="cls-62" d="M1033.91,2364l48.68-8.19s76.19-91.94,117.46,8.19c0,0,59.26,26.4,10.58,68.27,0,0-64.55,35.5-113.23-17.3,0,0-77.24,5.46-76.18,12.75C1021.22,2427.76,1013.81,2367.68,1033.91,2364Z"/>
      <polygon class="cls-63" points="804.15 2380.88 837.83 2433.67 890.63 2433.67 920.66 2388.16 891.54 2343.56 845.11 2343.56 804.15 2380.88"/>
      <path class="cls-64" d="M970.73,2384.52H917L887.89,2339l15.18-28.11s74.49-5.79,73.35,1.14l24.35,31.52Z"/>
      <path class="cls-65" d="M1059.26,2345l-63.38-4.8L974,2310S1046.18,2331.69,1059.26,2345Z"/>
      <path class="cls-66" d="M887.89,2434.58,917,2384.52h53.71l46.42,41.87s-15.47,23.67-37.32,31.86c0,0-41,21.85-62.81,15.47Z"/>
      <path class="cls-67" d="M804.15,2455.52l33.68-27.31,53.71,5.46,29.12,40S869.69,2482.83,804.15,2455.52Z"/>
      <path class="cls-68" d="M769.4,2377.61l34-.37,35.31,50.22-35.31,29s-60.13-31.87-63-52.15Z"/>
      <path class="cls-66" d="M765,2383.61h37.92l44.91-42.32-15.63-9.57S777,2355,765,2383.61Z"/>
      <path class="cls-69" d="M1017.15,2428.21s41.87-44.6,41-84.65l-61-4.55-26.4,45.51Z"/>
      <path class="cls-69" d="M832.37,2331.72l15.47,14.57,44.9.29,10.63-34.88S856,2316.25,832.37,2331.72Z"/>
      <path class="cls-70" d="M736.79,2410s36.28,53,129.07,65.18c0,0,98,17,145.53-38.67,0,0,53.17-48.35,50.36-93"/>
      <path class="cls-28" d="M1183.45,2337c3.3,4.33,9.23,12.64,12.59,20.69a5.65,5.65,0,0,1-3,7.22c-4.64,2.38-12.14,5.53-19.38,5.53-9.67,0-12-18.22-12.56-24.38a5.41,5.41,0,0,1,1.21-3.86c2.09-2.57,6.55-7.06,13-8.18A8.51,8.51,0,0,1,1183.45,2337Z"/>
      <path class="cls-29" d="M1189,2344.76s-14.17,10.69-12.09,25.45c0,0,8.84.66,21.34-8.22C1198.22,2362,1193.68,2348.23,1189,2344.76Z"/>
      <path class="cls-75" d="M1224.2,2411.52s-37.82-14.71-47.34-.15"/>
      <path class="cls-76" d="M1098.16,2416.5s-22,30.5-47.7,8.85c0,0-34.41-46.73,22.47-76.24,0,0,7.27-2.74,14,.84"/>
      <rect class="cls-77" x="1021.93" y="2398.63" width="18.21" height="4.1"/>
      <ellipse class="cls-78" cx="986.66" cy="2398.17" rx="35.5" ry="38.69"/>
      <rect class="cls-77" x="979.15" y="2442.32" width="18.21" height="4.1" transform="translate(3432.62 1456.12) rotate(90)"/>
      <rect class="cls-77" x="1061.07" y="2437.77" width="16.38" height="4.1" transform="translate(3509.08 1370.55) rotate(90)"/>
      <ellipse class="cls-78" cx="1069.49" cy="2482.83" rx="31.86" ry="35.96"/>
      <ellipse class="cls-78" cx="986.66" cy="2491.02" rx="35.5" ry="38.69"/>
      <rect class="cls-77" x="1021.93" y="2488.74" width="18.21" height="4.1" transform="matrix(1, -0.07, 0.07, 1, -170.42, 77.58)"/>
      <rect class="cls-77" x="982.9" y="2533.23" width="14.79" height="4.55" transform="translate(3525.81 1545.21) rotate(90)"/>
      <rect class="cls-77" x="1067.44" y="2522.42" width="9.1" height="4.1" transform="translate(3596.47 1452.48) rotate(90)"/>
      <path class="cls-78" d="M1026.71,2579.31c0,21.37-15.89,38.69-35.5,38.69"/>
      <path class="cls-78" d="M992.12,2618c-19.61,0-35.5-17.32-35.5-38.69s15.89-38.68,35.5-38.68"/>
      <path class="cls-78" d="M1070,2527c17.84,0,32.31,16.1,32.31,36"/>
    </g>
  </g>
  <g id="sky">
    <g id="skyer">
      <g id="sky1">
        <path id="_..." data-name="..." class="cls-49" d="M81.73,42.12s62.92-42,101.82,5.77c0,0,20.31-29.4,63.33-12.37,0,0,74.73-6.93,71.83,26.92,0,0,51.22,25.15,24.05,48,0,0-19.64,56.14-64.72,28.55,0,0-73.81,30.74-93.11-3.53,0,0-45.92,16.82-77.63-11.11C107.3,124.38,31.09,79.3,81.73,42.12Z"/>
        <text class="cls-79" transform="translate(110.58 95.71) rotate(6.44)">PLASTIK</text>
      </g>
      <g id="sky2">
        <path id="sky2-2" data-name="sky2" class="cls-77" d="M469,139.16s54.26-52.08,106-4.74c0,0,75.14-24.15,87.78,26.1,0,0-6,47.62-45.14,49.37,0,0-64.51,29.45-95.66,4.28,0,0-52,25.42-79.52,3.55C442.52,217.72,396.68,148.17,469,139.16Z"/>
        <text class="cls-79" transform="translate(537.22 185.87) rotate(-2.61)">I</text>
      </g>
      <g id="sky3">
        <path id="sky1-2" data-name="sky1" class="cls-77" d="M764,136.22s33.21-71.75,111.6-55.8c0,0,26.58-39.86,71.75-27.9,0,0,66.44-6.65,75.74,18.6,0,0,46.5-12,50.49,23.91,0,0,17.27,50.49-22.59,46.51,0,0-47.83,54.47-93,29.23,0,0-70.42,53.14-106.29,15.94C851.69,186.71,752,192,764,136.22Z"/>
        <text class="cls-79" transform="matrix(0.97, -0.24, 0.24, 0.97, 846, 158.42)">H<tspan class="cls-80" x="36.29" y="0">A</tspan><tspan x="66.86" y="0">VET</tspan></text>
      </g>
    </g>
  </g>
  <g id="stjerne">
    <g>
      <polygon class="cls-81" points="1028.91 2046.51 941.14 2029.84 877.65 2092.69 866.38 2004.06 786.98 1963.1 867.79 1924.99 882.22 1836.82 943.43 1901.9 1031.74 1888.38 988.76 1966.7 1028.91 2046.51"/>
      <ellipse class="cls-77" cx="898.44" cy="1947" rx="13.5" ry="20" transform="translate(-447.08 277.4) rotate(-14.09)"/>
      <ellipse class="cls-77" cx="933.56" cy="1938" rx="13.5" ry="20" transform="translate(-443.83 285.68) rotate(-14.09)"/>
      <ellipse cx="899.82" cy="1952.54" rx="13.5" ry="13.34" transform="translate(-448.39 277.9) rotate(-14.09)"/>
      <ellipse cx="934.82" cy="1943.54" rx="13.5" ry="13.34" transform="translate(-445.14 286.15) rotate(-14.09)"/>
      <path class="cls-30" d="M910.38,1988.9s13.57-19.08,39-5.84"/>
    </g>
  </g>
  <g id="sprutte">
    <g>
      <path class="cls-82" d="M1286,1456.6s-19.15,22.4-4.41,45.92-8.43,48.38-8.43,48.38"/>
      <path class="cls-82" d="M1356.26,1476.18s14.53,25.64-4.41,45.92-.94,49.1-.94,49.1"/>
      <path class="cls-82" d="M1325.42,1470.37s-23.68,29.2-5.73,59.62-10.68,62.86-10.68,62.86"/>
      <path class="cls-82" d="M1250.13,1463.14s17.69,33.17-5.73,59.62-1.48,63.74-1.48,63.74"/>
      <ellipse class="cls-83" cx="1310.95" cy="1419.43" rx="69.19" ry="94" transform="translate(-227.32 2588.67) rotate(-84.51)"/>
      <path class="cls-84" d="M1279.64,1463.56s35.93-31.07,53.6,5.15"/>
      <ellipse class="cls-77" cx="1297.2" cy="1412.53" rx="20.04" ry="11.94" transform="translate(-224.06 2580.31) rotate(-84.95)"/>
      <ellipse class="cls-77" cx="1329.17" cy="1415.04" rx="20.04" ry="11.94" transform="translate(-197.41 2614.45) rotate(-84.95)"/>
      <ellipse cx="1296.7" cy="1418.23" rx="13.37" ry="11.94" transform="translate(-240.24 2571.75) rotate(-84.45)"/>
      <ellipse cx="1328.57" cy="1420.71" rx="13.37" ry="11.94" transform="translate(-213.92 2605.72) rotate(-84.45)"/>
    </g>
  </g>
</svg>
